<svg t="1627873598417" class="icon" viewBox="0 0 1183 1024" version="1.1" xmlns="http://www.w3.org/2000/svg" p-id="1996" width="200" height="200"><path d="M1119.700935 610.471225l-10.073783-18.132809a635.151992 635.151992 0 0 0-151.106739-181.328086l115.344811-72.531235a24.680767 24.680767 0 0 0 7.555337-33.747172 24.177078 24.177078 0 0 0-33.243483-7.555337l-130.959173 82.101328a628.604033 628.604033 0 0 0-184.853911-92.678799l56.916872-175.787507a24.177078 24.177078 0 1 0-46.3394-15.110673L685.017216 274.510576a498.148549 498.148549 0 0 0-210.038367 0L417.054599 95.700935a24.177078 24.177078 0 1 0-46.3394 15.110673l56.916872 175.787507a629.611412 629.611412 0 0 0-166.217413 80.086571l-18.636498 12.592228-130.959173-82.101328a24.177078 24.177078 0 0 0-25.688146 41.302509L201.475652 411.01033a650.766355 650.766355 0 0 0-133.47762 151.106738q-9.570093 15.110674-18.132808 30.725037l-3.525824 6.04427-6.04427 10.577472a26.191835 26.191835 0 0 0 0 25.688145L50.368913 654.795868a657.818003 657.818003 0 0 0 210.542056 225.65273 576.220364 576.220364 0 0 0 318.835219 103.256272 576.220364 576.220364 0 0 0 318.835219-103.256272A661.343827 661.343827 0 0 0 1108.116085 654.795868l9.570093-18.132808a26.191835 26.191835 0 0 0 0-24.680768z m-54.902116 17.629119c-82.101328 151.106739-274.510576 302.213478-485.052631 302.213478s-402.951303-151.106739-484.548943-302.213478l-3.022134-5.036891 3.022134-5.036891q7.051648-13.095917 15.614363-26.695524C201.475652 449.794393 382.300049 315.309395 579.746188 315.309395c210.542056 0 402.951303 151.106739 484.548942 302.213478v4.029513z m-485.052631-201.475651a195.935071 195.935071 0 1 1-194.927693 195.935071 195.431382 195.431382 0 0 1 194.927693-195.935071z m0 339.990162a144.055091 144.055091 0 1 1 143.551402-144.055091 144.055091 144.055091 0 0 1-143.551402 144.055091z m0 0" p-id="1997" fill="#cdcdcd"></path></svg>