<svg t="1629882708141" class="icon" viewBox="0 0 1024 1024" version="1.1" xmlns="http://www.w3.org/2000/svg" p-id="1368" width="200" height="200"><path d="M792.3712 342.7328L608.256 165.2736c-8.6016-8.2944-20.0704-12.9024-32.1536-12.9024l-289.28-0.6144s-69.0176 4.5056-69.0176 67.584v585.4208s3.072 67.584 69.0176 67.584h450.3552s69.0176-3.1744 69.0176-67.584V374.8864c0-12.0832-5.0176-23.6544-13.824-32.1536zM609.1776 228.2496l120.6272 117.1456h-97.6896s-23.04-1.024-23.04-22.528c0.1024-21.504 0.1024-94.6176 0.1024-94.6176z m151.04 576.4096c0 22.6304-23.04 22.528-23.04 22.528H286.8224c-21.504 0-23.04-22.528-23.04-22.528V219.2384c0-20.992 23.04-22.528 23.04-22.528H563.2v126.0544c0 62.464 69.0176 67.584 69.0176 67.584h128v414.3104z" p-id="1369" fill="#bfbfbf"></path><path d="M365.3632 477.5936c0 12.4928 10.3424 22.528 23.04 22.528h248.32c12.6976 0 23.04-10.1376 23.04-22.528s-10.3424-22.528-23.04-22.528H388.4032c-12.6976 0-23.04 10.1376-23.04 22.528zM636.7232 568.7296H388.4032c-12.6976 0-23.04 10.1376-23.04 22.528s10.3424 22.528 23.04 22.528h248.32c12.6976 0 23.04-10.1376 23.04-22.528s-10.3424-22.528-23.04-22.528zM636.7232 682.3936H388.4032c-12.6976 0-23.04 10.1376-23.04 22.528s10.3424 22.528 23.04 22.528h248.32c12.6976 0 23.04-10.1376 23.04-22.528s-10.3424-22.528-23.04-22.528z" p-id="1370" fill="#bfbfbf"></path></svg>