<svg xmlns="http://www.w3.org/2000/svg" xmlns:xlink="http://www.w3.org/1999/xlink" width="304px" height="11px" viewBox="0 0 304 11" version="1.1">
    <!-- Generator: Sketch 42 (36781) - http://www.bohemiancoding.com/sketch -->
    <title>Status Bar/Black/100%</title>
    <desc>Created with Sketch.</desc>
    <defs/>
    <g id="表单设计" stroke="none" stroke-width="1" fill="none" fill-rule="evenodd" opacity="0.7">
        <g id="主界面左侧图标线性-copy-6" transform="translate(-546.000000, -212.000000)" fill="#030303">
            <g id="Group" transform="translate(525.000000, 136.000000)">
                <g id="Status-Bar/Black/100%" transform="translate(15.000000, 71.000000)">
                    <g id="Pin-Right" transform="translate(252.000000, 4.503081)">
                        <path d="M34.4937128,0.5 L54.0062872,0.5 C54.8266197,0.5 55.5,1.17394722 55.5,2.00530324 L55.5,8.49469676 C55.5,9.33197845 54.831242,10 54.0062872,10 L34.4937128,10 C33.6733803,10 33,9.32605278 33,8.49469676 L33,2.00530324 C33,1.16802155 33.668758,0.5 34.4937128,0.5 Z M56,3.5 L56.75,3.5 C57.1671014,3.5 57.5,3.83232111 57.5,4.24225998 L57.5,6.25774002 C57.5,6.66440529 57.1642136,7 56.75,7 L56,7 L56,3.5 Z M34.5081524,1 C33.9513652,1 33.5,1.45699692 33.5,2.00844055 L33.5,8.49155945 C33.5,9.04850578 33.9490581,9.5 34.5081524,9.5 L53.9918476,9.5 C54.5486348,9.5 55,9.04300308 55,8.49155945 L55,2.00844055 C55,1.45149422 54.5509419,1 53.9918476,1 L34.5081524,1 Z M34.5067444,1.5 L53.9932556,1.5 C54.2697754,1.5 54.5,1.72031886 54.5,1.99209595 L54.5,8.50790405 C54.5,8.78362799 54.2731228,9 53.9932556,9 L34.5067444,9 C34.2302246,9 34,8.77968114 34,8.50790405 L34,1.99209595 C34,1.71637201 34.2268772,1.5 34.5067444,1.5 Z" id="Battery"/>
                        <path d="M2.8125,10.5 L3.8671875,10.5 L3.8671875,2.04492188 L2.81835938,2.04492188 L2.47851562,2.28808594 C2.25195199,2.45019612 1.99023586,2.6386708 1.69335938,2.85351562 C1.39648289,3.06836045 1.13476676,3.25683513 0.908203125,3.41894531 L0.568359375,3.66210938 L0.568359375,4.77539062 L0.893554688,4.54101562 C1.11035265,4.38476484 1.36035015,4.20312604 1.64355469,3.99609375 C1.92675923,3.78906146 2.17675673,3.60742266 2.39355469,3.45117188 L2.71875,3.21679688 L2.8125,3.21679688 L2.8125,10.5 Z M9.22851562,10.6992188 C8.27538586,10.6992188 7.53711199,10.3125039 7.01367188,9.5390625 C6.49023176,8.76562113 6.22851562,7.67578828 6.22851562,6.26953125 C6.22851562,4.87499303 6.49218486,3.78906639 7.01953125,3.01171875 C7.54687764,2.23437111 8.2831984,1.84570312 9.22851562,1.84570312 C10.1699266,1.84570312 10.9033177,2.23534767 11.4287109,3.01464844 C11.9541042,3.79394921 12.2167969,4.88475861 12.2167969,6.28710938 C12.2167969,7.68946014 11.9560573,8.77538678 11.4345703,9.54492188 C10.9130833,10.314457 10.1777391,10.6992188 9.22851562,10.6992188 Z M9.22851562,9.77929688 C9.85351875,9.77929688 10.331053,9.47754208 10.6611328,8.87402344 C10.9912126,8.27050479 11.15625,7.40234941 11.15625,6.26953125 C11.15625,5.14843189 10.9892595,4.28515928 10.6552734,3.6796875 C10.3212874,3.07421572 9.84570621,2.77148438 9.22851562,2.77148438 C8.61132504,2.77148438 8.13379075,3.07519228 7.79589844,3.68261719 C7.45800612,4.2900421 7.2890625,5.15233816 7.2890625,6.26953125 C7.2890625,7.39844314 7.45605302,8.26562197 7.79003906,8.87109375 C8.12402511,9.47656553 8.6035125,9.77929688 9.22851562,9.77929688 Z M16.7871094,10.6992188 C15.8339796,10.6992188 15.0957057,10.3125039 14.5722656,9.5390625 C14.0488255,8.76562113 13.7871094,7.67578828 13.7871094,6.26953125 C13.7871094,4.87499303 14.0507786,3.78906639 14.578125,3.01171875 C15.1054714,2.23437111 15.8417921,1.84570312 16.7871094,1.84570312 C17.7285203,1.84570312 18.4619114,2.23534767 18.9873047,3.01464844 C19.5126979,3.79394921 19.7753906,4.88475861 19.7753906,6.28710938 C19.7753906,7.68946014 19.514651,8.77538678 18.9931641,9.54492188 C18.4716771,10.314457 17.7363329,10.6992188 16.7871094,10.6992188 Z M16.7871094,9.77929688 C17.4121125,9.77929688 17.8896468,9.47754208 18.2197266,8.87402344 C18.5498063,8.27050479 18.7148438,7.40234941 18.7148438,6.26953125 C18.7148438,5.14843189 18.5478532,4.28515928 18.2138672,3.6796875 C17.8798811,3.07421572 17.4043,2.77148438 16.7871094,2.77148438 C16.1699188,2.77148438 15.6923845,3.07519228 15.3544922,3.68261719 C15.0165999,4.2900421 14.8476562,5.15233816 14.8476562,6.26953125 C14.8476562,7.39844314 15.0146468,8.26562197 15.3486328,8.87109375 C15.6826189,9.47656553 16.1621063,9.77929688 16.7871094,9.77929688 Z M24.6328125,3.93164062 C24.6328125,4.52929986 24.4648454,5.01855278 24.1289062,5.39941406 C23.7929671,5.78027534 23.3613308,5.97070312 22.8339844,5.97070312 C22.306638,5.97070312 21.8740251,5.78027534 21.5361328,5.39941406 C21.1982405,5.01855278 21.0292969,4.52929986 21.0292969,3.93164062 C21.0292969,3.33788766 21.1982405,2.85058784 21.5361328,2.46972656 C21.8740251,2.08886528 22.306638,1.8984375 22.8339844,1.8984375 C23.3613308,1.8984375 23.7929671,2.08788873 24.1289062,2.46679688 C24.4648454,2.84570502 24.6328125,3.33398139 24.6328125,3.93164062 Z M22.8339844,5.22070312 C23.0917982,5.22070312 23.2998039,5.10254024 23.4580078,4.86621094 C23.6162117,4.62988163 23.6953125,4.31836131 23.6953125,3.93164062 C23.6953125,3.5371074 23.6181648,3.22461053 23.4638672,2.99414062 C23.3095695,2.76367072 23.0996107,2.6484375 22.8339844,2.6484375 C22.5722643,2.6484375 22.3623055,2.76464728 22.2041016,2.99707031 C22.0458976,3.22949335 21.9667969,3.54101367 21.9667969,3.93164062 C21.9667969,4.32226758 22.0458976,4.63476445 22.2041016,4.86914062 C22.3623055,5.1035168 22.5722643,5.22070312 22.8339844,5.22070312 Z M22.7402344,10.5 L21.6621094,10.5 L24.890625,6.09375 L27.8554688,2.04492188 L28.921875,2.04492188 L25.640625,6.53320312 L22.7402344,10.5 Z M29.5253906,8.60742188 C29.5253906,9.20508111 29.3574236,9.69433403 29.0214844,10.0751953 C28.6855452,10.4560566 28.2539089,10.6464844 27.7265625,10.6464844 C27.1992161,10.6464844 26.7666033,10.4560566 26.4287109,10.0751953 C26.0908186,9.69433403 25.921875,9.20508111 25.921875,8.60742188 C25.921875,8.01366891 26.0908186,7.52636909 26.4287109,7.14550781 C26.7666033,6.76464653 27.1992161,6.57421875 27.7265625,6.57421875 C28.2539089,6.57421875 28.6855452,6.76366998 29.0214844,7.14257812 C29.3574236,7.52148627 29.5253906,8.00976264 29.5253906,8.60742188 Z M27.7265625,9.89648438 C27.9843763,9.89648438 28.192382,9.77832149 28.3505859,9.54199219 C28.5087899,9.30566288 28.5878906,8.99414256 28.5878906,8.60742188 C28.5878906,8.21288865 28.510743,7.90039178 28.3564453,7.66992188 C28.2021477,7.43945197 27.9921888,7.32421875 27.7265625,7.32421875 C27.4648424,7.32421875 27.2548836,7.44042853 27.0966797,7.67285156 C26.9384758,7.9052746 26.859375,8.21679492 26.859375,8.60742188 C26.859375,8.99804883 26.9384758,9.3105457 27.0966797,9.54492188 C27.2548836,9.77929805 27.4648424,9.89648438 27.7265625,9.89648438 Z" id="100%"/>
                    </g>
                    <g id="Pin-Left" transform="translate(6.000000, 0.503081)">
                        <path d="M2.79104478,13 C1.24959331,13 0,11.6568542 0,10 C0,8.34314575 1.24959331,7 2.79104478,7 C4.33249624,7 5.58208955,8.34314575 5.58208955,10 C5.58208955,11.6568542 4.33249624,13 2.79104478,13 Z M9.89552239,13 C8.35407092,13 7.10447761,11.6568542 7.10447761,10 C7.10447761,8.34314575 8.35407092,7 9.89552239,7 C11.4369739,7 12.6865672,8.34314575 12.6865672,10 C12.6865672,11.6568542 11.4369739,13 9.89552239,13 Z M17,13 C15.4585485,13 14.2089552,11.6568542 14.2089552,10 C14.2089552,8.34314575 15.4585485,7 17,7 C18.5414515,7 19.7910448,8.34314575 19.7910448,10 C19.7910448,11.6568542 18.5414515,13 17,13 Z M24.1044776,13 C22.5630261,13 21.3134328,11.6568542 21.3134328,10 C21.3134328,8.34314575 22.5630261,7 24.1044776,7 C25.6459291,7 26.8955224,8.34314575 26.8955224,10 C26.8955224,11.6568542 25.6459291,13 24.1044776,13 Z M31.2089552,13 C29.6675038,13 28.4179104,11.6568542 28.4179104,10 C28.4179104,8.34314575 29.6675038,7 31.2089552,7 C32.7504067,7 34,8.34314575 34,10 C34,11.6568542 32.7504067,13 31.2089552,13 Z" id="Mobile-Signal"/>
                    </g>
                </g>
            </g>
        </g>
    </g>
</svg>